<svg xmlns="http://www.w3.org/2000/svg" width="308.46" height="424.037" viewBox="0 0 1935.11 2660.18" shape-rendering="geometricPrecision" text-rendering="geometricPrecision" image-rendering="optimizeQuality" fill-rule="evenodd" clip-rule="evenodd"><path d="M421.71 338.68l30.86-.32-5.89 21.9c-23.42 66.39-20.92 91.26-20.92 167.73v946.04c0 118.56-15.4 219.33 70.57 307.43 28.18 28.88 68.93 57.87 114.97 74.2 61.27 21.74 101.06 19.65 170.46 19.65l945.98.03c75.71.03 98.52-14.65 156.29-36.14l1.39 6.8c-2.84 82.41 7.85 108.39-38.98 163.55-25.39 29.91-81.74 63.5-140.31 67.7-13.9.51-27.87.9-41.88 1.21h34.92c3.59-.37 5.98-.78 6.96-1.21l-57.39 1.21h-238.79c-20.29-.12-40.51-.18-60.62-.14-117.9.24-235.81-.06-353.71-.02l-531.94.23c-76.11.08-87.5-8.73-142.75-34.71-55.55-37.16-80.63-72.59-80.6-163.95l-.04-1228.49c.05-74.19-12.31-168.52 23.69-224.44 26.96-41.88 87.18-83.25 157.73-88.27zm1096.02 2063.16l78.82.81.05 255.45 78.59.69.33-255.76 78.09-.59 1.04-39.52-236.95-.55.03 39.47zM141.07 2658.53l41 .3 30.08-87.99 97.65-.37 30.23 88.26 84.38-.02-102.29-296.46-79.88.19-101.17 296.1zm85.38-125.69l68.56.05c-2.09-15.29-26.97-85.23-34.22-100.77-6.22 6.61-32.02 84.96-34.34 100.72zm625.83 125.73l79.2.08.24-257.36c43.48-.49 79.23 7.08 81.19 51.58 2.11 47.89-30.23 56.54-74.8 56.92 7.07 23.06 23.71 54.41 33.62 76.71l25.8 56.52c10.47 23.97 12.78 15.87 94.85 15.8-3.79-16.43-53.68-101.35-65.74-128.4 31.52-13.57 53.65-20.44 62.91-54.67 9.37-34.64-1.46-65.29-26.87-87.07-40.95-35.1-146.01-28.11-209.75-26.09l-.66 295.99zm642.38-1063.83c-108.06 13.64-164.29 25.39-280.91 1.18-58.79-12.21-116.7-32.2-168.7-58.85-30.98-15.88-59.99-34.28-88.49-54.14-14.07-9.8-26.32-19.22-38.69-29.86-124.17-106.82-172.11-222.01-176.91-225.84-5.16-18.02-16.2-39.79-23.51-58.99-23.86-62.65-38.25-138.48-40.71-206.98-3.82-105.89 15.81-193.54 49.88-280.24 28.17-71.69 85.56-160.14 127.87-200.97 18.69-18.03 12.64-22.05 12.67-69.97.04-57.36-3.34-209.53.9-246.8 35.69 4.82 104.53.87 144.03.89 48.44.03 96.88.06 145.32.06 100.65 0 176.56-8.53 285.15 10 108.59 18.53 215.95 59.48 274.26 178.17 8.58 17.47 5.7 22.66 21.31 33.57 62.27 43.53 99.45 82.92 146.62 141.27 17.4 21.52 29.57 43.78 46.56 68.15 3.25 3.81.61 3.75 3.72 1.15L1935.1.51 1.49 0 .02 2221.88l1934.69.69.43-945.97c-3.61-3.45-.14-2.71-4.25.34-51.76 86.78-107.03 144.02-178.88 199.36-34.21 26.35-74.19 50.22-118.23 70.98-47.99 22.61-86.57 31.44-139.1 47.45zm-547.37-447.51c-3.49 32.59 29.81 101.66 43.71 125.71 118.52 204.94 437.89 236.12 609.93 118.18 32.58-22.34 64.9-54.01 88.02-84.75 49.26-65.5 72.41-145.79 72.31-227.19-.04-34.82-1.99-84.61-14.37-112.81-16.37-83.22-91.42-181.62-168.62-225.8-12.88-7.37-27.08-11.76-37.73-20.61l10.02-7.5c29.41-19.63 61.26-38.61 82.1-68.39 59.18-84.55 60.93-225.1-7.67-303.96-39.46-45.35-96.95-74.58-173.04-90.25-91.97-18.94-274.35-13.6-382.29-13.6-34.05 0-100.66-3.71-130.9 1.47l-.18 372.15v4.14l-.13 275.95c0 43.14-5.64 184.45 1.77 215.91.45 12.77.45 32.91 7.06 41.35zm357.66-26.48c3.83 6.43 8.47 11.22 12.55 17.67 4.03 6.38 8.56 14.08 12.23 20.62 7.03 12.53 14.87 33.1 26.42 39.13 8.68-24.59 33.26-57.17 45.61-77.47 8.25-5.38 11.68-10.85 20.92-17.5 6.71-4.83 18.03-9.2 22.64-16.03 13.24-4.43 43.32-19.24 52.25-27.2-.42-.51-1.17-1.88-1.39-1.41l-17.09-10.46c-8.64-4.35-12.55-7.29-21.51-8.4-15.36-19.88-38.85-6.85-82.16-82.62-6.66-11.65-12.62-28.96-24.14-35l-36.29 62.43c-3.05 4.26-4.33 5.81-7.22 9.29l-7.49 10.52c-9.37 5.59-14.83 11.27-24.58 17.65-4.87 3.19-6.94 4.21-12.12 6.99-2.8 1.51-4.03 1.79-7.05 4.03-9.24 6.84-1.89.44-6.31 6.02-7.33.4-35.22 13.74-41 20.96 13.52 11.86 34.43 18.82 49.87 27.18 21.93 11.87 31.15 23.95 45.84 33.6zM1013.2 558.83l.13-98.42.01-155.79c58.75-3.4 323.13-1.71 376.11 5.63 105.32 14.59 206.73 66.32 211.61 173.46 2.67 49.87-11.12 95.45-34.62 127.06-10.29 13.85-27.24 28.87-43.45 38.78-20.85 12.75-41.18 16.27-59.07 24.76-90.93 13.18-95.42 5.87-166.75 12.7-51.72 4.96-103.65 13.76-145.95 32.15-29.83 12.97-94.98 53.79-101.04 77.68l-20.17 160.3 7.91-11.58c13.32-29.81 13.87-42.14 40.76-76.76 68.37-88.01 175.01-115.42 292.68-109.97 132.59 6.15 257.54 95.36 300.35 217.2 8.15 17.79 12.37 42.83 14.34 62.2 1.83 17.95 1.79 36.75.62 54.76-3 46.27-18.39 98.36-42.76 138.17-26.58 43.43-61.24 75.82-104.76 103.67-57.57 36.83-143.59 57.56-227.57 47.07-132.77-16.59-269.37-139.74-293.31-262.05-10.36-55.55-6.97-180.15-5.02-241.56l-.06-319.44z" fill="#84c9fb"/></svg>