<?xml version="1.0" standalone="no"?>
<!DOCTYPE svg PUBLIC "-//W3C//DTD SVG 20010904//EN"
 "http://www.w3.org/TR/2001/REC-SVG-20010904/DTD/svg10.dtd">
<svg version="1.0" xmlns="http://www.w3.org/2000/svg"
 width="834.000000pt" height="1280.000000pt" viewBox="0 0 834.000000 1280.000000"
 preserveAspectRatio="xMidYMid meet">
<metadata>
Created by potrace 1.15, written by Peter Selinger 2001-2017
</metadata>
<g transform="translate(0.000000,1280.000000) scale(0.100000,-0.100000)"
fill="#000000" stroke="none">
<path d="M1844 12791 c-90 -23 -115 -46 -955 -888 -939 -941 -883 -876 -884
-1028 0 -155 -200 58 2201 -2345 l2144 -2145 -2123 -2125 c-1638 -1640 -2128
-2136 -2145 -2171 -47 -99 -47 -209 -1 -308 17 -35 214 -239 858 -883 944
-945 882 -892 1036 -893 71 0 88 4 147 33 62 30 268 235 3105 3077 3405 3412
3108 3101 3108 3259 0 158 309 -166 -3138 3283 -2599 2600 -3089 3085 -3134
3108 -59 28 -162 41 -219 26z"/>
</g>
</svg>
