<?xml version="1.0" encoding="UTF-8"?>
<!DOCTYPE svg PUBLIC "-//W3C//DTD SVG 1.1//EN" "http://www.w3.org/Graphics/SVG/1.1/DTD/svg11.dtd">
<!-- Creator: CorelDRAW 2018 (64-Bit) -->
<svg xmlns="http://www.w3.org/2000/svg" xml:space="preserve" width="64.8546mm" height="58.5111mm" version="1.1" style="shape-rendering:geometricPrecision; text-rendering:geometricPrecision; image-rendering:optimizeQuality; fill-rule:evenodd; clip-rule:evenodd"
viewBox="0 0 4186.2 3776.74"
 xmlns:xlink="http://www.w3.org/1999/xlink">
 <defs>
  <style type="text/css">
   <![CDATA[
    .fil0 {fill:#0E5C52;fill-opacity:0.501961}
   ]]>
  </style>
 </defs>
 <g id="Слой_x0020_1">
  <metadata id="CorelCorpID_0Corel-Layer"/>
  <path class="fil0" d="M947.86 590.99c334.21,-193.89 468.75,-558.43 726.55,-588.85 257.8,-30.42 638.85,273.28 1048.55,356.81 409.7,83.54 848.03,-53.08 1097.29,200.54 249.26,253.63 309.43,897.51 346.43,1472.47 37,574.97 50.84,1081.03 -238.43,1341.41 -289.26,260.39 -881.62,275.11 -1527.32,333.5 -645.69,58.38 -1344.72,160.43 -1633.71,-97.45 -288.99,-257.87 -167.94,-875.68 -303.15,-1398.68 -135.22,-522.99 -526.7,-951.18 -455.5,-1176.89 71.2,-225.71 605.07,-248.95 939.28,-442.85z"/>
 </g>
</svg>
