<?xml version="1.0" standalone="no"?>
<!DOCTYPE svg PUBLIC "-//W3C//DTD SVG 20010904//EN"
 "http://www.w3.org/TR/2001/REC-SVG-20010904/DTD/svg10.dtd">
<svg version="1.0" xmlns="http://www.w3.org/2000/svg"
 width="1280.000000pt" height="783.000000pt" viewBox="0 0 1280.000000 783.000000"
 preserveAspectRatio="xMidYMid meet">
<metadata>
Created by potrace 1.15, written by Peter Selinger 2001-2017
</metadata>
<g transform="translate(0.000000,783.000000) scale(0.100000,-0.100000)"
fill="#000000" stroke="none">
<path d="M1194 7810 c-260 -83 -583 -508 -827 -1086 -356 -846 -458 -1849
-277 -2729 226 -1100 863 -2018 1860 -2682 619 -412 1354 -716 2111 -872 270
-56 480 -86 814 -118 254 -24 930 -24 1210 0 806 69 1387 183 2532 496 457
125 652 175 658 169 1 -1 14 -59 29 -128 14 -69 59 -289 101 -489 41 -201 76
-365 78 -366 1 -2 747 660 1658 1469 911 809 1651 1474 1645 1477 -28 16
-4189 1390 -4193 1385 -3 -3 9 -74 26 -158 18 -84 45 -216 61 -293 16 -77 52
-249 80 -382 27 -134 50 -249 50 -257 0 -18 -37 -32 -395 -151 -1921 -641
-3539 -856 -4655 -619 -498 105 -1108 379 -1504 676 -194 145 -411 354 -538
518 -340 440 -504 949 -485 1505 10 272 37 416 144 775 240 806 301 1368 182
1685 -30 81 -115 167 -181 183 -65 16 -113 14 -184 -8z"/>
</g>
</svg>
