<?xml version="1.0" encoding="UTF-8"?>
<!DOCTYPE svg PUBLIC "-//W3C//DTD SVG 1.1//EN" "http://www.w3.org/Graphics/SVG/1.1/DTD/svg11.dtd">
<!-- Creator: CorelDRAW 2018 (64-Bit) -->
<svg xmlns="http://www.w3.org/2000/svg" xml:space="preserve" width="63.7684mm" height="63.3685mm" version="1.1" style="shape-rendering:geometricPrecision; text-rendering:geometricPrecision; image-rendering:optimizeQuality; fill-rule:evenodd; clip-rule:evenodd"
viewBox="0 0 5756.25 5720.15"
 xmlns:xlink="http://www.w3.org/1999/xlink">
 <defs>
  <style type="text/css">
   <![CDATA[
    .fil0 {fill:#0E5C52;fill-opacity:0.501961}
   ]]>
  </style>
 </defs>
 <g id="Слой_x0020_1">
  <metadata id="CorelCorpID_0Corel-Layer"/>
  <path class="fil0" d="M1371.45 634.51c489.8,-266.52 853.04,-636.14 1290.9,-634.5 437.85,1.63 950.32,374.53 1555.53,661.01 605.21,286.48 1303.15,486.55 1484.94,843.63 181.78,357.08 -152.58,871.16 -228.22,1454.61 -75.64,583.46 107.47,1236.27 -158.05,1613.1 -265.51,376.84 -979.65,477.72 -1526.69,685.52 -547.04,207.81 -926.97,522.55 -1278.44,452.22 -351.48,-70.34 -674.48,-525.76 -1106.67,-831.89 -432.19,-306.13 -973.55,-462.97 -1167.33,-741.19 -193.79,-278.22 -40,-677.85 -80.16,-1182.94 -40.16,-505.09 -274.29,-1115.67 -83.15,-1502.66 191.12,-386.98 807.5,-550.38 1297.31,-816.9z"/>
 </g>
</svg>
