<?xml version="1.0" encoding="UTF-8"?>
<!DOCTYPE svg PUBLIC "-//W3C//DTD SVG 1.1//EN" "http://www.w3.org/Graphics/SVG/1.1/DTD/svg11.dtd">
<!-- Creator: CorelDRAW 2018 (64-Bit) -->
<svg xmlns="http://www.w3.org/2000/svg" xml:space="preserve" width="33.3829mm" height="10.7969mm" version="1.1" style="shape-rendering:geometricPrecision; text-rendering:geometricPrecision; image-rendering:optimizeQuality; fill-rule:evenodd; clip-rule:evenodd"
viewBox="0 0 1140.84 368.98"
 xmlns:xlink="http://www.w3.org/1999/xlink">
 <defs>
  <style type="text/css">
   <![CDATA[
    .fil0 {fill:#FEFEFE}
   ]]>
  </style>
 </defs>
 <g id="Слой_x0020_1">
  <metadata id="CorelCorpID_0Corel-Layer"/>
  <path class="fil0" d="M820.2 83.92c14.6,34.06 -81.09,58.39 -197.87,64.88 -116.78,6.49 -254.64,-4.87 -362.5,-27.58 -107.86,-22.71 -185.71,-56.76 -227.88,-47.84 -42.17,8.92 -48.66,60.82 17.84,107.04 66.5,46.22 205.99,86.77 342.23,94.07 136.24,7.3 269.24,-18.65 354.59,-44.6 85.35,-25.95 123.07,-51.9 146.79,-55.95 23.72,-4.06 33.45,13.79 32.24,38.52 -1.22,24.74 -13.38,56.36 -33.86,93.67 -20.48,37.3 -49.27,80.28 -8.52,55.55 40.75,-24.74 151.04,-117.18 211.5,-178.6 60.45,-61.42 71.07,-91.81 -27.06,-123.44 -98.13,-31.63 -304.99,-64.49 -345.98,-59.03 -40.99,5.46 83.9,49.26 98.49,83.32z"/>
 </g>
</svg>
