<?xml version="1.0" encoding="UTF-8"?>
<!DOCTYPE svg PUBLIC "-//W3C//DTD SVG 1.1//EN" "http://www.w3.org/Graphics/SVG/1.1/DTD/svg11.dtd">
<!-- Creator: CorelDRAW 2018 (64-Bit) -->
<svg xmlns="http://www.w3.org/2000/svg" xml:space="preserve" width="38.0481mm" height="11.9155mm" version="1.1" style="shape-rendering:geometricPrecision; text-rendering:geometricPrecision; image-rendering:optimizeQuality; fill-rule:evenodd; clip-rule:evenodd"
viewBox="0 0 19432.17 6085.56"
 xmlns:xlink="http://www.w3.org/1999/xlink">
 <defs>
  <style type="text/css">
   <![CDATA[
    .fil0 {fill:#FEFEFE}
   ]]>
  </style>
 </defs>
 <g id="Слой_x0020_1">
  <metadata id="CorelCorpID_0Corel-Layer"/>
  <path class="fil0" d="M17118.94 2669.62c-1610.32,304.04 -4628.2,686.88 -7454.72,540.5 -2826.46,-146.37 -5461.45,-822.07 -5675.45,-1261.24 -213.94,-439.17 1993.21,-641.83 3062.98,-1013.43 1069.77,-371.6 1002.2,-912.16 -416.7,-934.68 -1418.85,-22.52 -4188.98,472.98 -5551.55,844.59 -1362.57,371.6 -1317.52,619.31 -540.5,1767.93 776.97,1148.62 2285.96,3198.07 2894.03,3445.82 608.07,247.75 315.32,-1306.29 123.85,-2184.63 -191.42,-878.35 -281.51,-1081 754.45,-810.73 1036.01,270.23 3198.12,1013.43 6024.58,1283.71 2826.46,270.23 6317.33,67.57 7893.84,-416.65 1576.51,-484.22 1238.72,-1249.95 968.44,-1520.18 -270.28,-270.28 -472.93,-45.1 -2083.25,258.99z"/>
 </g>
</svg>
