<?xml version="1.0" encoding="UTF-8"?>
<!DOCTYPE svg PUBLIC "-//W3C//DTD SVG 1.1//EN" "http://www.w3.org/Graphics/SVG/1.1/DTD/svg11.dtd">
<!-- Creator: CorelDRAW 2018 (64-Bit) -->
<svg xmlns="http://www.w3.org/2000/svg" xml:space="preserve" width="8.8953mm" height="8.8954mm" version="1.1" style="shape-rendering:geometricPrecision; text-rendering:geometricPrecision; image-rendering:optimizeQuality; fill-rule:evenodd; clip-rule:evenodd"
viewBox="0 0 11.86 11.86"
 xmlns:xlink="http://www.w3.org/1999/xlink">
 <defs>
  <style type="text/css">
   <![CDATA[
    .fil0 {fill:black}
   ]]>
  </style>
 </defs>
 <g id="Слой_x0020_1">
  <metadata id="CorelCorpID_0Corel-Layer"/>
  <g id="_2331005876976">
   <path class="fil0" d="M0.61 1.36c-0,0.04 -0.08,0.13 -0.08,0.15 -0.01,0.02 -0.01,0.01 -0.02,0.03 -0.01,0.02 -0,0 -0.01,0.02 -0,0 -0.01,0.01 -0.01,0.02l-0.23 0.44c-0,0.01 0,-0 -0.01,0.02l-0.02 0.05c-0,0 -0,0.01 -0.01,0.02l-0.04 0.12c-0,0 -0,0 -0,0.01l-0.08 0.25c-0,0.01 -0,0.03 -0.01,0.04l-0.06 0.26c-0,0.03 0,0.04 -0,0.07l-0.03 0.24c-0.01,0.24 0,0.47 0,0.71 0,0.12 -0.01,4.9 0,5 0,0 0,0 0,0.01l0 0.01c0,0 0,0 0,0.01l0.01 0.17c0,0.02 -0,0 0,0.02l0 0.01c0.01,0.04 0,0.06 0.02,0.12 0.02,0.06 0.04,0.21 0.06,0.28 0,0 0,0.01 0,0.01 0,0 0,0 0,0.01l0.01 0.04c0,0 0,0 0,0.01l0.07 0.22c0.01,0.04 0.02,0.06 0.03,0.08l0.04 0.1c0,0 0,0 0,0.01l0.12 0.24c0.01,0.01 0,0 0.01,0.02l0.07 0.12c0.01,0.02 0.01,0.01 0.02,0.03l0.12 0.18c0.01,0.02 0,0.01 0.01,0.02l0.04 0.06c0,0 0,0.01 0.01,0.01l0.27 0.31c0.01,0.01 0.01,0.02 0.02,0.03l0.09 0.09c0.01,0.02 -0.01,-0 0.02,0.02l0.36 0.28c0,0 0,0 0.01,0l0.01 0.01c0,0 0,0 0.01,0l0.18 0.11c0.02,0.01 0.02,0.02 0.04,0.03l0.1 0.05c0,0 0,0 0.01,0l0.02 0.01c0.02,0.01 0.03,0.01 0.04,0.02l0.42 0.17c0,0 0,0 0.01,0l0.25 0.08c0.04,0.01 0.06,0.02 0.11,0.02l0.08 0.02c0.02,0.01 0.03,0.01 0.04,0.01l0.11 0.02c0.03,0.01 0.04,-0 0.07,0.01l0.06 0.01c0.03,-0 0.04,0.01 0.08,0.01 0.19,0.01 0.47,0 0.67,0 0.14,0 4.96,0.01 5.08,-0 0.06,-0.01 0.07,0 0.11,-0.01l0.16 -0.03c0,-0 0.01,-0 0.02,-0 0.02,-0 0,0 0.02,-0l0.44 -0.11c0.09,-0.03 0.27,-0.08 0.34,-0.12l0.19 -0.09c0.03,-0.01 -0,0.01 0.03,-0.02l0.05 -0.03c0.04,-0.01 0.04,-0.03 0.08,-0.05l0.15 -0.09c0,-0 0,-0 0.01,-0l0.53 -0.44c0,-0 0,-0 0.01,-0.01 0,-0 0,-0 0.01,-0.01l0.06 -0.07c0.01,-0.01 0.02,-0.02 0.03,-0.03l0.07 -0.09c0.01,-0.02 0.02,-0.02 0.03,-0.03l0.18 -0.25c0,-0.01 0,-0.01 0.01,-0.02l0.11 -0.19c0,-0 0,-0 0,-0.01 0.01,-0.01 0,-0 0.01,-0.02 0,-0 0,-0 0,-0.01l0.04 -0.07c0.04,-0.08 0.07,-0.14 0.1,-0.21 0.03,-0.1 0.07,-0.17 0.1,-0.28 0.01,-0.03 -0,-0 0.01,-0.03l0.1 -0.42c0,-0 0,-0 0,-0.01l0.04 -0.29c0,-0.02 0,-0.01 0,-0.04 0.02,-0.12 -0,-4.75 0,-5.71l-0.02 -0.23c-0,-0 -0,-0 -0,-0.01 -0,-0 -0,-0.01 -0,-0.01l-0.1 -0.47c-0,-0 -0,-0.01 -0,-0.01 -0,-0 -0,-0 -0,-0.01 -0,-0 -0,-0 -0,-0.01 -0,-0 -0,-0 -0,-0.01 -0,-0.01 -0,0 -0,-0.02l-0.04 -0.11c-0,-0 -0,-0 -0,-0.01l-0.24 -0.54c-0,-0 -0,-0 -0,-0.01l-0.1 -0.16c-0.01,-0.01 -0.01,-0.01 -0.01,-0.02 -0,-0 -0,-0.01 -0.01,-0.01l-0.04 -0.06c-0,-0 -0,-0 -0,-0.01l-0.13 -0.17c-0.01,-0.01 -0.02,-0.02 -0.03,-0.04l-0.09 -0.11c-0.09,-0.08 -0.16,-0.16 -0.25,-0.25 -0.03,-0.03 -0.06,-0.07 -0.1,-0.09 -0,-0 -0,-0 -0.01,-0l-0.23 -0.18c-0,-0 -0.01,-0 -0.01,-0.01l-0.25 -0.16c-0,-0 -0.01,-0 -0.01,-0l-0.65 -0.28c-0.01,-0 0,0 -0.02,-0.01l-0.07 -0.02c-0.01,-0 -0.02,-0 -0.04,-0.01 -0.1,-0.04 -0.22,-0.05 -0.32,-0.07l-0.07 -0.01c-0.01,-0 -0.01,-0 -0.02,-0l-0.2 -0.02c-0.1,-0.01 -0.57,-0 -0.71,-0 -1.67,0 -3.33,-0.01 -5,-0l-0.15 0.02c-0,0 -0.01,0 -0.02,0l-0.57 0.1c-0.03,0.01 0.01,-0.01 -0.02,0.01 -0.01,0 -0.02,0.01 -0.02,0.01 -0.03,0.01 0,0 -0.03,0.01 -0.03,0 -0,-0 -0.03,0.01l-0.17 0.06c-0.03,0.01 -0.02,0.01 -0.04,0.02 -0.03,0.01 -0.02,0 -0.04,0.01l-0.78 0.47c-0.01,0.01 -0.01,0.01 -0.02,0.02l-0.09 0.07c-0.1,0.11 -0.18,0.16 -0.27,0.27 -0.01,0.02 -0.02,0.02 -0.03,0.03l-0.17 0.2c-0.01,0.03 -0,0.04 -0.04,0.05zm8.93 10.36l0 -0c-0,0 -0,0 -0,0zm-7.23 -0.01l0 0c-0,-0 -0,-0 -0,-0zm-0.34 -0.13c-0,0 0,0 0,0l-0 -0zm-0.19 -0.09c-0,0 0,0 0,0l0 0c-0,0 -0,-0 -0,-0zm-1.64 -9.15l-0 0c0,-0 0,-0 0,-0zm0.23 -0.57l-0 0c0,-0 0,-0 0,-0zm1.23 -1.31l-0 0c0,-0 0,-0 0,-0zm0.19 -0.1l-0 -0c0,0 0,0 0,0zm0.54 -0.22l-0 -0c0,0 0,0 0,0zm0.62 -0.13l-0 -0c0,0 0,0 0,0zm5.98 0l-0 -0c0,0 0,0 0,0zm0.62 0.13c0,-0 -0,-0 -0,-0l0 0c0,0 0,0 0,0zm0.73 0.32l-0 -0c0,0 0,0 0,0zm0.54 0.41l-0 -0c0,0 0,0 0,0zm0.09 0.09c0,-0 -0,-0 -0,-0l0 0c0,0 0,0 0,0zm0.09 0.09l-0 -0c0,0 0,0 0,0zm0.51 0.73c0,0 0,-0 0,-0l0 0c0,0 -0,0 -0,0zm0 8.3l0 -0c0,0 -0,0 -0,0zm-0.6 0.82l0 -0c-0,0 -0,0 -0,0zm-0.82 0.59l0 0c-0,0 -0,-0 -0,-0zm-4.01 -2.28c-0.06,0 -0.36,0.01 -0.43,-0.01l-0.18 -0.02c-0,-0 -0.01,-0 -0.02,-0l-0.07 -0.01c-0.04,-0 -0,-0 -0.03,-0.01 -0.03,-0.01 -0.03,0 -0.08,-0.01l-0.17 -0.04c-0.02,-0 -0.01,0 -0.03,-0l-0.48 -0.18c-0.03,-0.01 -0.06,-0.03 -0.08,-0.05 -0.02,-0.01 -0.02,-0.01 -0.04,-0.02 -0.03,-0.02 -0.02,-0 -0.04,-0.01 -0.02,-0.01 -0.01,-0 -0.02,-0.01l-0.18 -0.11c-0,-0 -0.01,-0 -0.02,-0.01l-0.25 -0.18c-0,-0 -0,-0 -0.01,-0 -0,-0 -0,-0 -0.01,-0l-0.17 -0.14c-0.09,-0.09 -0.17,-0.17 -0.25,-0.25l-0.07 -0.09c-0.02,-0.04 -0.06,-0.06 -0.09,-0.09 -0,-0 -0.01,-0.02 -0.01,-0.02 -0,-0 -0,-0 -0,-0.01l-0.05 -0.06c-0,-0 -0,-0 -0,-0l-0.26 -0.41c-0.03,-0.05 -0.06,-0.1 -0.08,-0.16l-0.06 -0.15c-0,-0 -0,-0 -0,-0.01l-0.05 -0.14c-0.01,-0.02 -0.01,-0.03 -0.01,-0.04l-0.09 -0.34c-0.01,-0.04 -0.02,-0.05 -0.02,-0.08l-0.04 -0.22c-0.02,-0.06 -0.02,-0.15 -0.02,-0.22l-0.01 -0.08c-0,-0.08 -0.01,-0.18 0.01,-0.26l0.03 -0.3c0,-0 0,-0.01 0,-0.02l0.13 -0.54c0,-0 0,-0 0,-0.01l0.01 -0.04c0,-0 0,-0 0,-0.01l0.01 -0.02c0,-0 0,-0 0,-0.01l0.08 -0.21c0.02,-0.03 -0.01,0.01 0.01,-0.02l0.06 -0.12c0.01,-0.01 0.01,-0.02 0.02,-0.04 0.01,-0.02 0.01,-0.02 0.02,-0.04l0.16 -0.27c0.02,-0.04 0.06,-0.08 0.08,-0.12 0,-0 0,-0 0,-0 0,-0 0,-0 0,-0l0.1 -0.13c0.02,-0.02 0.04,-0.04 0.06,-0.07l0.01 -0.01c0.04,-0.07 0.33,-0.34 0.36,-0.37 0.02,-0.01 0.02,-0.01 0.03,-0.02l0.61 -0.41c0,-0 0,-0 0.01,-0l0.02 -0.01c0,-0 0,-0 0.01,-0l0.25 -0.11c0.03,-0.01 0.01,-0.01 0.04,-0.02 0,0 0.02,-0 0.02,-0.01 0,-0 0,-0 0.01,-0 0,-0 0,-0 0.01,-0l0.18 -0.07c0.01,-0 0.05,-0.02 0.08,-0.02l0.12 -0.03c0,-0 0.02,-0 0.02,-0l0.12 -0.03c0,-0 0,-0 0.01,-0 0,-0 0,-0 0.01,-0l0.24 -0.03c0.02,0 0.03,0 0.04,-0 0.07,-0.02 0.5,-0.02 0.58,-0.01 0,0 0.01,0 0.02,0l0.09 0.01c0,0 0.01,0 0.02,0 0.02,0.01 0.04,0 0.06,0.01 0.03,0.01 -0,0 0.03,0.01 0.02,0 0.01,0 0.04,0 0.02,0 0.03,0 0.04,0.01 0.03,0 -0.01,-0 0.02,0l0.09 0.02c0.04,0.01 0.03,0.01 0.08,0.02l0.21 0.06c0,0 0,0 0.01,0l0.73 0.33c0.02,0.02 0.01,0.01 0.04,0.03l0.23 0.16c0.01,0.01 0.01,0.01 0.02,0.02l0.11 0.09c0.03,0.04 0.03,0.01 0.08,0.06l0.24 0.24c0.08,0.08 0.07,0.09 0.1,0.12 0.02,0.02 0.04,0.04 0.06,0.06l0.08 0.11c0,0 0,0 0,0l0.23 0.38c0,0 0,0 0,0.01l0 0.01c0,0 0,0 0,0.01 0,0 0,0 0,0.01l0.03 0.05c0,0 0,0 0,0l0.11 0.27c0.02,0.03 0,-0 0.01,0.03l0.03 0.08c0,0 0.01,0.02 0.01,0.02 0.01,0.02 0.01,0.03 0.01,0.03l0 0.01c0,0 0,0 0,0.01l0.14 0.65c0.01,0.06 0.01,0.13 0.01,0.23 0,0 0,-0 0,0 0,0 0.01,0 0.01,0.05l-0 0.15c0,0.02 0,0.02 0,0.04 0,0.01 0,0 -0,0.02l-0.19 1c-0,0 -0,0 -0,0.01 -0,0 -0,0.01 -0.01,0.01l-0.08 0.19c-0,0 -0,0 -0,0.01 -0,0 -0,0 -0,0.01l-0.02 0.04c-0.01,0.04 -0.02,0.05 -0.04,0.08 -0.01,0.01 -0.01,0.03 -0.02,0.04 -0,0 -0.01,0.02 -0.01,0.02l-0.02 0.05c-0,0 -0,0 -0,0.01l-0.01 0.03c-0,0 -0,0.01 -0.01,0.02l-0.12 0.2c-0.01,0.01 -0.02,0.03 -0.03,0.04 -0,0 -0,0 -0,0.01l-0.19 0.24c-0.01,0.01 -0,0 -0.02,0.02l-0.43 0.42 -0.37 0.26c-0.03,0.02 -0.05,0.03 -0.08,0.05l-0.06 0.03c-0,0 -0,0 -0,0l-0.59 0.25c-0.02,0.01 0.01,-0 -0.02,0.01l-0.62 0.13c-0.02,0 -0.02,-0 -0.04,0l-0.13 0.01c-0.02,0 -0.02,0.01 -0.05,0.01zm1.23 -0.3l-0 0c0,-0 0,-0 0,-0zm0.58 -0.34l-0 0c0,-0 0,-0 0,-0zm-0.01 -5.29c-0,0 0,0 0,0l-0 -0zm-0.37 -0.24l0 0c-0,-0 -0,-0 -0,-0zm-3.1 -0.02c-0,0 0,0 0,0l-0 -0zm-0.41 0.27l0 -0c-0,0 -0,0 -0,0zm0.01 5.29c0,-0 -0,-0 -0,-0l0 0c0,0 0,0 0,0zm0.41 0.26l-0 -0c0,0 0,0 0,0zm0.17 0.09l-0 -0c0,0 0,0 0,0zm4.65 -6.91c0,-0.12 0.03,-0.24 0.06,-0.32 0.02,-0.04 0.09,-0.15 0.12,-0.17 0.03,-0.02 0.04,-0.03 0.06,-0.06l0.25 -0.12c0.08,-0.02 0.21,-0.03 0.29,-0.01l0.07 0.02c0.09,0.03 0.17,0.08 0.24,0.14l0.1 0.11c0.09,0.14 0.07,0.17 0.09,0.24 0.02,0.06 0.02,0.06 0.02,0.13 0,0.02 0,0.05 0,0.06 -0,0.02 0,-0.01 -0,0.02l-0 0.01c-0,0 -0,0 -0,0.01l-0.03 0.13c-0,0.01 -0,0.01 -0.01,0.02l-0.01 0.02c-0,0 -0,0 -0,0.01l-0.01 0.02c-0.03,0.05 -0.05,0.05 -0.05,0.1 -0.03,0 -0.02,0 -0.03,0.02l-0.06 0.07c-0.02,0.02 -0.03,0.03 -0.05,0.04l-0.18 0.1c-0,0 -0,0 -0.01,0 -0.11,0.04 -0.25,0.04 -0.37,0.01l-0.16 -0.07c-0,-0 -0,-0 -0.01,-0l-0.09 -0.07c-0.08,-0.06 -0.15,-0.15 -0.18,-0.24l-0.03 -0.09c-0.01,-0.05 -0.02,-0.08 -0.02,-0.13zm0.32 0.51l-0 0c0,-0 0,-0 0,-0zm0.46 -1.18l0 0c-0,-0 -0,-0 -0,-0zm-0.34 0.02l0 0c-0,-0 -0,-0 -0,-0zm-0.33 0.96c0,-0 -0,-0 -0,-0l0 0c0,0 0,0 0,0z"/>
   <path class="fil0" d="M5.58 7.87c0.02,0 0,0.01 0.04,0.02l0.36 0.02c0.04,0 0.06,0 0.1,0 0.03,-0 -0,0 0.02,-0l0.14 -0.02c0,0 0.02,-0 0.02,-0 0.02,-0.01 -0.01,-0 0.03,-0.01 0.02,-0 0.01,0 0.05,-0.01 0,0 0.02,-0 0.02,-0 0,-0 0,-0 0.01,-0 0.07,-0.02 0.15,-0.03 0.22,-0.06l0.39 -0.19c0,-0 0,-0 0,-0l0.03 -0.02c0.05,-0.02 0.06,-0.04 0.11,-0.08 0,-0 0,-0 0.01,-0 0,-0 0,-0 0.01,-0l0.07 -0.05c0.01,-0.01 0.01,-0.01 0.02,-0.02 0,-0 0.01,-0.01 0.01,-0.01l0.31 -0.33c0,-0 0.01,-0.02 0.02,-0.02l0.06 -0.09c0,-0 0,-0 0,-0.01l0.05 -0.08c0,-0 0.01,-0.02 0.01,-0.03l0.1 -0.19c0,-0 0,-0 0,-0.01l0 -0.01c0,-0 0,-0 0,-0.01 0,-0 0,-0 0,-0.01 0,-0 0,-0 0,-0.01l0.07 -0.22c0,-0 0,-0 0,-0.01l0.01 -0.03c0,-0 0,-0.01 0,-0.01l0.01 -0.07c0.02,-0.07 0.01,-0.09 0.02,-0.17 0.01,-0.03 -0,0.01 0.01,-0.02l0 -0.35c-0,-0.02 -0,-0.01 -0,-0.03 -0.02,-0.07 -0.01,-0.1 -0.02,-0.16 -0.01,-0.02 -0.01,-0.04 -0.01,-0.05l-0.12 -0.39c-0.01,-0.02 -0,-0.01 -0.01,-0.02 -0.02,-0.06 -0.05,-0.1 -0.08,-0.15 -0.01,-0.03 0,-0 -0.01,-0.02 -0,-0.01 -0,-0.01 -0.01,-0.02 -0.06,-0.08 -0.11,-0.19 -0.18,-0.26l-0.3 -0.3c-0.02,-0.02 -0.02,-0.02 -0.04,-0.03l-0.34 -0.2c-0.04,-0.01 -0.04,-0.02 -0.08,-0.03l-0.31 -0.1c-0.01,-0 -0.01,-0 -0.02,-0.01l-0.03 -0.01c-0,-0 -0.01,-0 -0.01,-0 -0.01,-0 -0.03,-0 -0.05,-0l-0.2 -0.03c-0.09,-0 -0.27,-0.01 -0.35,0.01l-0.13 0.02c-0.03,0.01 0,0 -0.03,0.01 -0.03,0.01 -0.01,-0 -0.05,0.01l-0.03 0.01c-0,0 -0,0 -0.01,0l-0.1 0.03c-0.02,0.01 -0,-0 -0.03,0.01l-0.18 0.06c-0,0 -0,0 -0.01,0 -0,0 -0,0 -0.01,0l-0.05 0.03c-0.02,0.01 -0.01,0.01 -0.02,0.01l-0.15 0.07c-0,0 -0,0 -0.01,0l-0.28 0.19c-0.04,0.05 -0.17,0.12 -0.24,0.24l-0.02 0.03c-0,0 -0.01,0.01 -0.02,0.02 -0,0 -0.01,0.01 -0.01,0.01l-0.18 0.26c-0,0 -0,0 -0,0.01l-0.08 0.17c-0,0 -0,0.01 -0,0.01l-0.13 0.42c-0,0 -0,0 -0,0.01 -0.04,0.17 -0.03,0.34 -0.03,0.52 -0,0.07 0.03,0.23 0.05,0.31l0.03 0.12c0,0.01 0.01,0.03 0.02,0.05 0.01,0.02 0,0 0.01,0.02l0.06 0.16c0,0 0,0 0,0.01 0,0 0,0 0,0.01l0 0.01c0,0 0,0 0,0.01l0.06 0.11c0,0.01 0.01,0.01 0.01,0.02l0.21 0.31c0.07,0.07 0.14,0.16 0.22,0.22l0.1 0.09c0,0 0,0 0,0l0.39 0.23c0.02,0.01 -0,0 0.02,0.01l0.43 0.12zm0 0.02c0,0 0,-0 0,-0l0 0c-0,0 -0,0 -0,0zm-0.39 -0.12l0 0c-0,-0 -0,-0 -0,-0zm-0.43 -0.24c-0,0 0,0 0,0l0 0c-0,-0 -0,-0 -0,-0zm-0.52 -0.57l-0 0c0,-0 0,-0 0,-0zm0.87 -2.84l-0 -0c0,0 0,0 0,0zm0.09 -0.04l-0 -0c0,0 0,0 0,0zm0.39 -0.12l-0 0c0,-0 0,-0 0,-0zm0.69 0.01c0,-0 -0,-0 -0,-0l0 0c0,0 0,0 0,0zm0.39 0.11l-0 -0c0,0 0,0 0,0zm0.09 0.04l-0 -0c0,0 0,0 0,0zm0.43 0.26l-0 -0c0,0 0,0 0,0zm0.6 0.82c0,-0 -0,-0 -0,-0l0 0c0,0 0,0 0,0zm-0.01 1.46c0,0 0,-0 0,-0l0 0c-0,0 -0,0 -0,0zm-0.69 0.88c0,0 0,-0 0,-0l0 0c-0,0 -0,0 -0,0zm-0.43 0.24c0,0 0,-0 0,-0l0 0c-0,0 -0,0 -0,0zm-0.39 0.11l0 -0c-0,0 -0,0 -0,0z"/>
  </g>
 </g>
</svg>
