<?xml version="1.0" encoding="UTF-8"?>
<!DOCTYPE svg PUBLIC "-//W3C//DTD SVG 1.1//EN" "http://www.w3.org/Graphics/SVG/1.1/DTD/svg11.dtd">
<!-- Creator: CorelDRAW 2018 (64-Bit) -->
<svg xmlns="http://www.w3.org/2000/svg" xml:space="preserve" width="14.165mm" height="8.0364mm" version="1.1" style="shape-rendering:geometricPrecision; text-rendering:geometricPrecision; image-rendering:optimizeQuality; fill-rule:evenodd; clip-rule:evenodd"
viewBox="0 0 36.23 20.56"
 xmlns:xlink="http://www.w3.org/1999/xlink">
 <defs>
  <style type="text/css">
   <![CDATA[
    .fil0 {fill:black}
   ]]>
  </style>
 </defs>
 <g id="Слой_x0020_1">
  <metadata id="CorelCorpID_0Corel-Layer"/>
  <path class="fil0" d="M11.79 1.47c0.55,0 0.96,0.05 1.39,0.37 0.34,0.26 0.54,0.61 0.69,1.06 0.16,0.49 0.16,0.96 0.16,1.59 0,0.59 0.02,1.14 0.02,1.74 -0,0.16 0.02,0.25 0.02,0.41l0.02 1.74c-0,0.43 0.07,0.76 -0.15,1.14 -0.28,0.49 -0.9,0.77 -1.47,0.6 -0.4,-0.12 -0.52,-0.26 -0.76,-0.58l-1.56 -2.38c-0.27,-0.46 -0.55,-0.93 -0.8,-1.4l-0.45 -0.85c-0.24,-0.48 -0.52,-0.98 -0.72,-1.48l-0.34 -0.74c-0.16,-0.36 -0.29,-0.74 -0.46,-1.09 -0.19,-0.39 -0.6,-0.69 -1.08,-0.69l-5.4 0c-0.3,0 -0.56,0.16 -0.73,0.39 -0.32,0.43 -0.09,0.94 0.08,1.36l2.28 4.85c0.06,0.12 0.14,0.24 0.2,0.36 0.24,0.47 0.51,0.94 0.79,1.4l1.26 2.04c0.29,0.44 0.58,0.89 0.89,1.31 0.08,0.11 0.14,0.21 0.22,0.32l0.94 1.25c0.04,0.05 0.09,0.11 0.13,0.15l0.3 0.37c0.24,0.27 0.6,0.74 0.84,0.97 0.14,0.14 0.26,0.29 0.39,0.43l0.26 0.28c0.05,0.05 0.09,0.09 0.14,0.14l1.2 1.13c0.04,0.03 0.05,0.03 0.08,0.07 0.29,0.25 0.59,0.5 0.9,0.72l1.16 0.78c1.2,0.73 2.73,1.34 4.17,1.34l3.7 0c0.25,0 0.5,-0.12 0.65,-0.22 0.26,-0.18 0.45,-0.46 0.54,-0.77 0.03,-0.13 0.04,-0.25 0.04,-0.41l-0 -1.75c0,-0.56 0.09,-0.89 0.52,-1.23 0.34,-0.26 0.98,-0.33 1.36,-0.11 0.27,0.16 0.5,0.4 0.72,0.62l0.18 0.16c0.06,0.06 0.11,0.11 0.17,0.17l0.34 0.31c0.13,0.1 0.22,0.23 0.34,0.33l0.52 0.49c0.07,0.07 0.11,0.09 0.18,0.16 0.12,0.12 0.22,0.2 0.34,0.32l0.87 0.81c0.06,0.06 0.11,0.11 0.17,0.17l0.35 0.33c0.36,0.37 0.78,0.64 1.38,0.64l5.6 0c0.84,0 1.87,-0.36 1.87,-1.34l0 -0c-0,-0.22 -0.08,-0.54 -0.15,-0.69 -0.23,-0.5 -0.37,-0.61 -0.69,-1.01 -0.13,-0.16 -0.82,-0.83 -1.06,-1.07l-0.21 -0.22c-0.08,-0.08 -0.14,-0.14 -0.22,-0.21l-2.71 -2.84c-0.04,-0.04 -0.07,-0.06 -0.1,-0.1 -0.04,-0.05 -0.05,-0.07 -0.1,-0.12 -0.22,-0.22 -0.44,-0.44 -0.56,-0.73 -0.19,-0.49 -0.19,-1.02 0.02,-1.49 0.08,-0.19 0.26,-0.4 0.39,-0.57 0.07,-0.09 0.13,-0.17 0.2,-0.27l1.04 -1.37c0.14,-0.19 0.27,-0.36 0.42,-0.55l1.14 -1.5c0.04,-0.05 0.06,-0.09 0.1,-0.14l0.62 -0.82c0.07,-0.1 0.14,-0.18 0.21,-0.28 0.07,-0.1 0.13,-0.19 0.2,-0.28l0.19 -0.29c0.24,-0.37 0.53,-0.8 0.72,-1.2 0.11,-0.22 0.2,-0.43 0.29,-0.67 0.14,-0.4 0.28,-0.97 0.06,-1.39 -0.03,-0.05 -0.08,-0.12 -0.12,-0.16 -0.27,-0.27 -0.62,-0.35 -1.07,-0.35l-5.96 0c-0.56,0 -0.99,0.38 -1.18,0.76l-0.34 0.63c-0.12,0.22 -0.22,0.44 -0.34,0.65l-0.34 0.63c-0.22,0.43 -0.47,0.84 -0.68,1.28l-0.26 0.47c-0.04,0.06 -0.06,0.1 -0.09,0.17l-0.5 0.95c-0.06,0.12 -0.12,0.21 -0.18,0.32l-0.42 0.8c-0.31,0.58 -0.66,1.13 -1.07,1.64 -0.13,0.17 -0.33,0.35 -0.5,0.47 -0.58,0.44 -1.17,0.39 -1.46,-0.32 -0.15,-0.36 -0.19,-0.67 -0.19,-1.17l0 -5.49c0,-0.67 0.04,-1.23 -0.31,-1.75 -0.19,-0.28 -0.4,-0.5 -0.69,-0.67 -0.55,-0.33 -1.14,-0.25 -1.8,-0.25l-3.42 0c-0.11,0 -0.22,-0.01 -0.33,-0.02l-0.29 0c-0.01,0 -0.03,0 -0.04,0.01 -0.41,0.06 -0.75,0.09 -1.13,0.26 -0.33,0.15 -0.6,0.29 -0.86,0.5 -0.13,0.1 -0.26,0.2 -0.37,0.32 -0.07,0.07 -0.28,0.31 -0.3,0.39z"/>
 </g>
</svg>
