<?xml version="1.0" encoding="UTF-8"?>
<!DOCTYPE svg PUBLIC "-//W3C//DTD SVG 1.1//EN" "http://www.w3.org/Graphics/SVG/1.1/DTD/svg11.dtd">
<!-- Creator: CorelDRAW 2018 (64-Bit) -->
<svg xmlns="http://www.w3.org/2000/svg" xml:space="preserve" width="12.5587mm" height="8.8991mm" version="1.1" style="shape-rendering:geometricPrecision; text-rendering:geometricPrecision; image-rendering:optimizeQuality; fill-rule:evenodd; clip-rule:evenodd"
viewBox="0 0 25.77 18.26"
 xmlns:xlink="http://www.w3.org/1999/xlink">
 <defs>
  <style type="text/css">
   <![CDATA[
    .fil0 {fill:black}
   ]]>
  </style>
 </defs>
 <g id="Слой_x0020_1">
  <metadata id="CorelCorpID_0Corel-Layer"/>
  <path class="fil0" d="M10.26 12.48l0 -7.23c0.14,0.08 0.25,0.14 0.41,0.22l2.15 1.13c0.16,0.08 0.25,0.14 0.41,0.22 0.96,0.48 2.04,1.09 3.01,1.57l0.89 0.45c-0.12,0.16 -2.25,1.21 -2.55,1.36l-0.87 0.47c-0.28,0.16 -0.58,0.27 -0.86,0.44 -0.45,0.27 -2.03,1.07 -2.59,1.36zm-10.26 -4.79l0 2.86c0,1.2 0.15,3.68 0.46,4.76 0.2,0.68 0.45,1.25 0.9,1.71 0.7,0.71 1.88,0.97 2.9,1.05l1.83 0.11c0.2,0 0.47,-0.02 0.67,0 0.37,0.04 0.88,-0.01 1.25,0.05 0.36,0.05 0.91,0.01 1.29,0.01 0.21,0 0.34,0.04 0.6,0.04l9.87 -0.11c0.41,-0.03 0.84,-0.05 1.27,-0.07l1.23 -0.11c0.39,-0.04 0.79,-0.14 1.1,-0.27 1.59,-0.67 2.04,-2.3 2.2,-3.86 0.02,-0.22 0.02,-0.4 0.05,-0.62 0.02,-0.14 0.05,-0.46 0.06,-0.61l0.07 -1.3c-0,-0.22 -0.01,-0.45 -0,-0.67l0 -3.59c0,-0.28 -0.04,-0.42 -0.04,-0.67 0,-0.42 -0.1,-1.42 -0.14,-1.9 -0.08,-0.93 -0.32,-1.92 -0.76,-2.66 -0.22,-0.37 -0.36,-0.48 -0.64,-0.74 -0.8,-0.72 -2.13,-0.88 -3.22,-0.87 -0.23,0 -0.36,-0.04 -0.63,-0.04l-1.3 -0.07c-0.57,-0.02 -1.51,0.02 -2.04,-0.04 -0.45,-0.05 -3.45,-0.07 -4.09,-0.07 -0.42,0 -0.85,0 -1.27,0 -0.47,0 -0.83,0.04 -1.27,0.04 -0.89,-0 -1.67,0.04 -2.54,0.03l-3.67 0.18c-1.1,0.01 -2.05,0.3 -2.81,1.07 -0.78,0.78 -1.1,2.21 -1.17,3.31l-0.14 1.8c-0.01,0.45 -0.03,0.81 -0.03,1.27z"/>
 </g>
</svg>
