<?xml version="1.0" encoding="UTF-8"?>
<!DOCTYPE svg PUBLIC "-//W3C//DTD SVG 1.1//EN" "http://www.w3.org/Graphics/SVG/1.1/DTD/svg11.dtd">
<!-- Creator: CorelDRAW 2018 (64-Bit) -->
<svg xmlns="http://www.w3.org/2000/svg" xml:space="preserve" width="1190.52mm" height="106.226mm" version="1.1" style="shape-rendering:geometricPrecision; text-rendering:geometricPrecision; image-rendering:optimizeQuality; fill-rule:evenodd; clip-rule:evenodd"
viewBox="0 0 42825.78 3821.17"
 xmlns:xlink="http://www.w3.org/1999/xlink">
 <defs>
  <style type="text/css">
   <![CDATA[
    .fil0 {fill:#FBF8F3}
   ]]>
  </style>
 </defs>
 <g id="Слой_x0020_1">
  <metadata id="CorelCorpID_0Corel-Layer"/>
  <path class="fil0" d="M7052.31 1840.09c137.47,-61.35 280,-113.5 426.13,-153.22 871.39,-236.88 1869.69,-33.84 2855.17,294.02 985.48,327.86 1958.14,780.53 2854.92,856.67 896.77,76.14 1717.66,-224.25 2425.24,-486.55 707.58,-262.3 1301.85,-486.52 1954.13,-648.13 652.28,-161.61 1362.6,-260.61 2805.05,141.24 1442.45,401.86 3617.05,1304.57 5401.28,1406.96 1784.23,102.39 3178.1,-595.55 4417.9,-1443.66 1239.8,-848.11 2325.54,-1846.41 3358.7,-1806.24 161.83,6.29 322.37,38.08 480.66,89.28l8241.56 3496.23 -21364.91 0c-3372.13,-47.07 -6411.08,-45.83 -8732.6,0l-12175.52 0 7052.31 -1746.6zm35680.93 1941.83l92.54 39.26 -92.54 -1.22 0 -38.04z"/>
 </g>
</svg>
