<?xml version="1.0" encoding="UTF-8"?>
<!DOCTYPE svg PUBLIC "-//W3C//DTD SVG 1.1//EN" "http://www.w3.org/Graphics/SVG/1.1/DTD/svg11.dtd">
<!-- Creator: CorelDRAW 2018 (64-Bit) -->
<svg xmlns="http://www.w3.org/2000/svg" xml:space="preserve" width="210.199mm" height="36.6724mm" version="1.1" style="shape-rendering:geometricPrecision; text-rendering:geometricPrecision; image-rendering:optimizeQuality; fill-rule:evenodd; clip-rule:evenodd"
viewBox="0 0 1893.31 330.32"
 xmlns:xlink="http://www.w3.org/1999/xlink">
 <defs>
  <style type="text/css">
   <![CDATA[
    .str0 {stroke:#E31E24;stroke-width:1.8;stroke-miterlimit:22.9256}
    .fil0 {fill:#FF0009}
   ]]>
  </style>
 </defs>
 <g id="Слой_x0020_1">
  <metadata id="CorelCorpID_0Corel-Layer"/>
  <path class="fil0 str0" d="M1261.91 161.28c105.08,-14.45 210.17,-69.62 315.25,-105.08 109.08,-36.81 204.85,-55.22 299.18,-55.29 5.36,-0 10.71,0 16.07,0l0 328.51 -52.54 0c-52.54,0 -157.63,0 -262.71,0 -105.08,0 -210.17,0 -315.25,0 -105.08,0 -210.17,0 -315.25,0 -105.08,0 -210.17,0 -315.25,0 -105.08,0 -210.17,0 -315.25,0 -105.08,0 -210.17,0 -262.71,0l-52.54 0 0 -210.17 0 -118.34c4.82,-0.03 9.64,0.03 14.44,0 346.2,-1.91 989.73,195.69 1246.57,160.37z"/>
 </g>
</svg>
