<?xml version="1.0" standalone="no"?>
<svg xmlns:xlink="http://www.w3.org/1999/xlink" id="wave" style="transform:rotate(0deg); transition: 0.3s" viewBox="0 0 1440 490" version="1.1" xmlns="http://www.w3.org/2000/svg"><defs><linearGradient id="sw-gradient-0" x1="0" x2="0" y1="1" y2="0"><stop stop-color="rgba(9.54, 132.259, 146.141, 1)" offset="0%"/><stop stop-color="rgba(218.366, 224.476, 228.105, 1)" offset="100%"/></linearGradient></defs><path style="transform:translate(0, 0px); opacity:1" fill="url(#sw-gradient-0)" d="M0,343L80,294C160,245,320,147,480,163.3C640,180,800,310,960,318.5C1120,327,1280,212,1440,171.5C1600,131,1760,163,1920,179.7C2080,196,2240,196,2400,179.7C2560,163,2720,131,2880,171.5C3040,212,3200,327,3360,318.5C3520,310,3680,180,3840,179.7C4000,180,4160,310,4320,326.7C4480,343,4640,245,4800,196C4960,147,5120,147,5280,196C5440,245,5600,343,5760,326.7C5920,310,6080,180,6240,147C6400,114,6560,180,6720,220.5C6880,261,7040,278,7200,236.8C7360,196,7520,98,7680,98C7840,98,8000,196,8160,269.5C8320,343,8480,392,8640,359.3C8800,327,8960,212,9120,163.3C9280,114,9440,131,9600,187.8C9760,245,9920,343,10080,375.7C10240,408,10400,376,10560,334.8C10720,294,10880,245,11040,196C11200,147,11360,98,11440,73.5L11520,49L11520,490L11440,490C11360,490,11200,490,11040,490C10880,490,10720,490,10560,490C10400,490,10240,490,10080,490C9920,490,9760,490,9600,490C9440,490,9280,490,9120,490C8960,490,8800,490,8640,490C8480,490,8320,490,8160,490C8000,490,7840,490,7680,490C7520,490,7360,490,7200,490C7040,490,6880,490,6720,490C6560,490,6400,490,6240,490C6080,490,5920,490,5760,490C5600,490,5440,490,5280,490C5120,490,4960,490,4800,490C4640,490,4480,490,4320,490C4160,490,4000,490,3840,490C3680,490,3520,490,3360,490C3200,490,3040,490,2880,490C2720,490,2560,490,2400,490C2240,490,2080,490,1920,490C1760,490,1600,490,1440,490C1280,490,1120,490,960,490C800,490,640,490,480,490C320,490,160,490,80,490L0,490Z"/></svg>