<?xml version="1.0" encoding="UTF-8"?>
<!DOCTYPE svg PUBLIC "-//W3C//DTD SVG 1.1//EN" "http://www.w3.org/Graphics/SVG/1.1/DTD/svg11.dtd">
<!-- Creator: CorelDRAW 2018 (64-Bit) -->
<svg xmlns="http://www.w3.org/2000/svg" xml:space="preserve" width="209.999mm" height="36.4732mm" version="1.1" style="shape-rendering:geometricPrecision; text-rendering:geometricPrecision; image-rendering:optimizeQuality; fill-rule:evenodd; clip-rule:evenodd"
viewBox="0 0 1889.55 328.18"
 xmlns:xlink="http://www.w3.org/1999/xlink">
 <defs>
    <clipPath id="id0">
     <path d="M-0 328.18c0,-54.7 0,-109.39 0,-164.09 0,-24.89 0,-49.78 0,-74.67 0,-29.8 0,-59.61 0,-89.41 0,0 0,0 0,0 2.96,-0.02 5.92,-0 8.87,0 1.85,0 3.7,0.01 5.55,-0 44.13,-0.24 93.09,2.76 145.47,8.11 228.61,23.34 522.3,91.4 763.04,129.57 136.4,21.63 255.8,33.66 336.76,22.53 104.98,-14.43 209.95,-69.55 314.93,-104.97 10.52,-3.55 20.91,-6.93 31.19,-10.13 89.97,-28.07 171.28,-43.02 251.06,-44.9 5.55,-0.13 11.09,-0.2 16.62,-0.2 5.36,-0 10.7,0 16.05,0 0,0 0,0 0,0 0,29.8 0,59.61 0,89.41 0,24.89 0,49.78 0,74.67 0,54.7 0,109.39 0,164.09 -100.56,0 -201.13,0 -301.69,0 -80.24,0 -160.48,0 -240.72,0 -134.12,0 -268.25,0 -402.37,0 -104.11,0 -208.23,0 -312.34,0 -95.91,0 -191.81,0 -287.72,0 -114.9,0 -229.81,0 -344.72,0z"/>
    </clipPath>
 </defs>
 <g id="Слой_x0020_1">
  <metadata id="CorelCorpID_0Corel-Layer"/>
  <g>
   <g style="clip-path:url(#id0)">
    <image x="-3.78" y="-3.78" width="1897.11" height="335.74" xlink:href="wave only red-2_Images\wave only red-2_ImgID1.png"/>
   </g>
  </g>
 </g>
</svg>
