<?xml version="1.0" standalone="no"?>
<!DOCTYPE svg PUBLIC "-//W3C//DTD SVG 20010904//EN"
 "http://www.w3.org/TR/2001/REC-SVG-20010904/DTD/svg10.dtd">
<svg version="1.0" xmlns="http://www.w3.org/2000/svg"
 width="1271.000000pt" height="1280.000000pt" viewBox="0 0 1271.000000 1280.000000"
 preserveAspectRatio="xMidYMid meet">
<metadata>
Created by potrace 1.15, written by Peter Selinger 2001-2017
</metadata>
<g transform="translate(0.000000,1280.000000) scale(0.100000,-0.100000)"
fill="#000000" stroke="none">
<path d="M6345 12794 c-27 -2 -115 -9 -195 -14 -960 -72 -1950 -418 -2815
-984 -551 -361 -709 -527 -1205 -1272 -128 -192 -304 -443 -390 -559 -935
-1249 -1504 -2517 -1679 -3745 -56 -391 -71 -852 -37 -1128 9 -74 16 -136 16
-138 0 -2 31 -4 68 -4 l68 0 43 173 c23 94 63 237 87 317 52 166 247 730 251
726 2 -2 -2 -130 -8 -285 -9 -214 -9 -340 0 -524 27 -584 104 -982 310 -1612
38 -115 94 -314 124 -441 133 -548 371 -1234 686 -1976 166 -392 393 -871 425
-897 18 -15 52 -5 95 28 l23 18 -35 139 c-110 429 -218 1030 -217 1197 1 39 5
33 52 -83 28 -69 88 -222 134 -340 56 -146 89 -217 101 -221 39 -16 82 -10 94
13 8 16 9 182 4 650 -4 345 -6 628 -4 628 3 0 63 -57 134 -128 212 -207 424
-357 712 -502 905 -457 2238 -613 3586 -420 969 139 1828 456 2403 886 383
286 617 594 773 1016 45 120 57 136 143 191 26 16 130 59 134 54 1 -1 7 -85
14 -187 32 -510 139 -1158 250 -1520 16 -52 43 -176 61 -275 54 -314 143 -684
191 -796 18 -43 49 -69 82 -69 29 0 65 51 101 146 21 54 41 103 45 107 4 5 55
-184 114 -420 59 -235 111 -444 116 -463 9 -35 10 -35 57 -32 80 5 93 10 93
37 0 23 116 316 445 1125 313 770 434 1108 531 1487 109 427 151 801 141 1238
-8 327 -36 594 -103 1006 l-18 107 73 78 c146 158 275 384 276 481 0 52 -1 53
-75 129 -66 66 -179 164 -239 206 -20 14 -20 15 12 104 29 81 32 99 32 209 -1
107 -4 128 -29 195 l-28 75 2 395 c3 622 -18 799 -145 1245 -531 1860 -1654
3299 -3164 4054 -608 304 -1244 486 -1945 556 -143 15 -663 27 -771 19z m656
-144 c1036 -80 2006 -445 2829 -1066 1064 -803 1838 -1980 2260 -3435 91 -313
120 -473 140 -769 11 -164 13 -533 4 -604 l-7 -46 -67 64 c-210 198 -675 382
-1080 426 -58 6 -106 13 -108 15 -2 1 -38 146 -82 321 -92 374 -202 780 -307
1129 -130 435 -354 1100 -389 1152 -30 47 -114 20 -114 -37 0 -15 21 -82 46
-151 244 -662 525 -1637 733 -2539 68 -299 211 -989 211 -1020 0 -8 -18 21
-39 66 -39 82 -69 114 -106 114 -33 0 -63 -28 -74 -67 -15 -52 -31 -370 -39
-748 -6 -276 -9 -320 -22 -318 -87 12 -497 47 -740 63 -280 19 -501 38 -507
44 -2 1 27 47 63 102 207 312 376 653 442 894 34 121 52 245 52 356 0 91 -3
107 -20 124 -25 25 -64 26 -89 1 -15 -15 -19 -39 -23 -137 -3 -65 -13 -155
-23 -199 -88 -422 -404 -963 -974 -1670 -163 -203 -406 -491 -421 -500 -6 -4
-6 4 1 22 23 62 90 310 128 481 114 502 183 1069 200 1646 30 983 -93 1891
-371 2746 -28 85 -57 168 -65 183 -18 35 -56 51 -86 36 -51 -27 -49 -48 18
-249 182 -543 307 -1179 350 -1790 l6 -85 -189 375 c-217 431 -233 460 -265
460 -12 0 -31 3 -43 6 -38 10 -52 -49 -58 -245 -13 -358 -77 -966 -127 -1202
l-10 -47 -62 19 c-83 25 -282 66 -387 79 -46 5 -154 10 -240 10 -251 0 -411
-34 -600 -128 -63 -31 -118 -58 -122 -60 -3 -2 -19 18 -34 45 -219 381 -444
731 -658 1021 l-90 122 -58 0 -59 0 -44 -92 c-84 -172 -157 -439 -185 -673 -7
-55 -15 -120 -19 -145 l-6 -45 -74 128 c-55 95 -78 126 -90 123 -9 -3 -37 -10
-62 -16 l-47 -12 -6 -101 c-13 -204 -17 -229 -35 -222 -49 20 -220 57 -325 71
-91 12 -168 15 -311 11 -263 -8 -442 -41 -687 -127 -62 -22 -113 -38 -114 -37
-9 11 -63 129 -99 215 -80 196 -176 496 -235 732 -11 47 -23 90 -25 97 -3 8
-21 6 -67 -8 -35 -10 -65 -18 -68 -18 -8 2 -60 -132 -120 -311 -86 -258 -140
-486 -196 -830 -6 -34 -7 -32 -46 60 -137 330 -221 632 -249 901 -17 160 -7
442 21 611 26 153 22 182 -26 194 -42 11 -75 -22 -90 -88 -34 -146 -48 -296
-47 -498 0 -276 32 -480 120 -769 l35 -116 -7 -160 c-16 -396 -73 -765 -166
-1078 -16 -56 -24 -68 -37 -63 -9 3 -44 15 -77 27 -49 17 -76 20 -146 17 l-85
-4 -72 176 c-227 551 -339 955 -399 1435 -22 174 -25 653 -5 820 82 705 325
1339 752 1964 85 124 95 156 60 191 -47 47 -79 22 -195 -152 -356 -533 -595
-1094 -699 -1643 -13 -71 -27 -155 -31 -185 -4 -30 -40 -190 -81 -355 -222
-895 -344 -1777 -344 -2480 0 -360 24 -504 93 -545 53 -32 121 -42 211 -30 66
9 211 51 298 85 14 5 17 -3 23 -52 21 -185 87 -413 183 -637 l55 -129 -13
-106 c-19 -159 -15 -393 9 -531 34 -193 106 -386 207 -547 l44 -71 -2 -517 -3
-517 -94 233 c-125 312 -147 358 -176 365 -39 10 -67 0 -89 -29 -19 -25 -21
-45 -24 -174 -5 -202 24 -477 84 -787 14 -70 23 -130 21 -132 -4 -5 -214 481
-287 666 -242 609 -457 1265 -550 1680 -18 80 -66 244 -106 365 -153 463 -234
824 -281 1245 -15 135 -18 243 -17 590 0 450 7 575 61 1067 l27 253 -24 25
c-19 21 -30 24 -55 19 -16 -3 -36 -12 -43 -18 -7 -7 -35 -98 -61 -202 -78
-304 -122 -445 -296 -939 -36 -104 -86 -253 -110 -330 l-44 -140 -1 150 c0
178 12 359 41 585 156 1253 760 2608 1710 3840 44 58 181 256 304 440 355 533
468 683 660 875 379 380 1217 859 1927 1104 431 148 938 253 1398 290 154 12
665 13 821 1z m1748 -6020 c2 -985 -184 -2094 -453 -2692 l-25 -56 36 -46 c20
-25 41 -46 47 -46 12 0 5 -8 324 364 250 291 485 580 646 794 l108 143 22 -19
c40 -37 147 -100 223 -132 299 -125 638 -126 1023 -4 61 19 114 32 119 30 18
-11 35 -146 34 -266 -1 -151 -32 -335 -72 -431 -101 -240 -383 -495 -681 -613
-77 -31 -191 -114 -218 -159 -11 -18 -37 -77 -57 -132 -46 -125 -133 -308
-187 -395 -391 -624 -1296 -1117 -2495 -1359 -1303 -264 -2711 -171 -3693 244
-361 153 -646 340 -890 585 -359 359 -503 705 -487 1165 12 341 96 668 327
1275 53 140 104 276 114 302 10 26 22 50 27 53 5 4 9 17 9 29 0 13 20 93 44
178 73 254 124 527 149 806 l12 133 63 -140 c87 -190 76 -179 151 -156 50 15
61 22 58 36 -17 63 57 522 124 779 37 138 129 423 135 417 3 -2 29 -85 58
-183 69 -228 150 -445 228 -606 60 -125 62 -127 105 -142 43 -15 46 -14 131
20 425 172 892 197 1308 72 l101 -30 47 27 c44 26 46 29 47 73 0 26 4 69 7 97
l7 49 73 -121 72 -122 38 6 c20 3 51 8 67 12 l30 7 7 155 c8 184 37 391 77
550 31 119 98 309 111 309 4 0 47 -57 97 -127 200 -283 406 -606 562 -883 45
-80 91 -153 103 -162 30 -26 57 -22 113 18 112 80 276 146 435 175 46 9 144
14 255 13 208 0 346 -21 577 -84 l140 -38 38 26 c37 26 39 30 59 137 55 289
110 773 132 1160 0 6 99 -186 219 -425 l219 -435 0 -235z m-7244 460 c46 -470
165 -918 389 -1474 l97 -240 -33 -25 c-111 -84 -192 -220 -220 -362 l-12 -65
-115 1 c-124 0 -212 -20 -312 -71 l-47 -23 -6 37 c-3 20 -9 120 -13 222 -12
367 37 958 127 1520 35 215 122 670 126 655 2 -5 10 -84 19 -175z m9649 -15
c272 -41 607 -165 816 -302 136 -89 269 -256 307 -383 33 -111 17 -254 -42
-371 -20 -40 -22 -53 -14 -92 9 -40 17 -49 89 -101 89 -64 250 -212 250 -230
0 -22 -87 -183 -136 -253 -68 -96 -242 -266 -354 -345 -171 -121 -401 -238
-636 -323 -123 -45 -402 -125 -434 -125 -13 0 -15 24 -15 168 -1 142 -4 180
-24 257 -23 87 -23 98 -17 360 11 463 18 619 28 602 5 -9 51 -139 103 -289 51
-150 99 -288 105 -306 9 -22 23 -37 47 -47 48 -20 48 -20 73 21 20 31 22 43
15 107 -9 101 -86 558 -140 843 -43 221 -160 783 -170 812 -6 16 26 15 149 -3z
m-8816 -1795 c29 -12 52 -26 52 -29 0 -14 -49 -150 -130 -361 -91 -236 -197
-552 -226 -672 -11 -43 -22 -78 -25 -78 -8 0 -70 173 -97 270 -57 207 -73 440
-39 567 43 163 144 280 277 324 40 13 132 3 188 -21z m7724 -215 c199 -14 386
-29 413 -34 l50 -7 -90 -18 c-198 -40 -455 -30 -613 23 -72 25 -151 59 -135
60 6 1 175 -10 375 -24z m2177 -187 c96 -567 120 -1146 65 -1578 -53 -422
-171 -851 -387 -1420 -47 -124 -196 -495 -330 -825 -134 -330 -256 -633 -272
-673 -21 -54 -31 -69 -35 -55 -4 10 -56 213 -115 450 l-109 433 -39 26 c-39
26 -40 26 -64 7 -16 -12 -43 -63 -78 -148 l-53 -129 -10 39 c-59 225 -110 467
-151 715 -136 827 -143 1542 -21 2058 18 75 26 90 79 152 113 131 173 234 211
360 33 109 38 120 56 120 24 0 244 56 357 92 295 91 628 252 812 392 33 25 63
46 66 46 4 0 12 -28 18 -62z m-1765 -1242 c-24 -140 -44 -337 -51 -509 -3 -92
-7 -166 -9 -164 -7 7 -35 321 -43 483 -7 138 -6 182 3 192 13 13 110 81 113
78 0 0 -5 -37 -13 -80z"/>
<path d="M7185 8162 c-199 -60 -380 -226 -523 -484 -37 -67 -39 -79 -13 -102
37 -34 61 -17 115 78 131 230 302 380 476 417 82 18 231 6 319 -25 139 -49
282 -139 409 -259 57 -54 78 -68 99 -65 35 4 50 29 38 65 -12 32 -139 144
-244 216 -93 62 -205 119 -296 147 -98 32 -294 37 -380 12z"/>
<path d="M3545 8075 c-229 -66 -441 -278 -616 -618 -56 -108 -59 -142 -14
-153 39 -10 51 0 84 68 51 107 146 259 216 346 83 103 166 171 273 224 75 38
92 42 174 46 143 7 252 -26 389 -118 83 -55 244 -220 289 -294 51 -85 82 -116
109 -109 36 9 46 44 26 84 -56 110 -216 290 -335 379 -71 52 -176 108 -255
136 -68 23 -271 29 -340 9z"/>
<path d="M7832 5974 c-11 -7 -23 -30 -26 -51 -13 -75 -38 -134 -80 -191 -52
-71 -129 -129 -171 -129 -20 -1 -161 -75 -442 -234 -227 -129 -413 -236 -413
-239 0 -9 854 -352 878 -352 48 -1 77 55 53 100 -6 11 -134 68 -315 142 -168
68 -306 126 -306 129 0 4 127 78 283 166 416 235 491 293 562 439 40 82 61
176 46 205 -14 25 -45 32 -69 15z"/>
<path d="M3505 5813 c-23 -23 -14 -70 29 -158 61 -123 197 -251 328 -309 l55
-24 6 -234 c7 -245 20 -417 38 -507 19 -92 82 -129 134 -77 33 33 39 101 32
366 -11 350 -36 618 -63 672 -16 31 -50 44 -86 32 -33 -10 -46 -32 -54 -91
l-6 -53 -57 30 c-113 61 -215 175 -257 287 -30 81 -63 103 -99 66z"/>
<path d="M6025 3091 l-240 -240 -150 125 c-273 228 -294 244 -324 244 -36 0
-61 -28 -61 -68 0 -28 23 -50 272 -257 l272 -226 278 278 c153 153 281 289
285 301 8 33 -26 76 -63 80 -26 2 -55 -23 -269 -237z"/>
</g>
</svg>
