<svg aria-hidden="true" style="position: absolute; width: 0; height: 0; overflow: hidden;" version="1.1" xmlns="http://www.w3.org/2000/svg" xmlns:xlink="http://www.w3.org/1999/xlink">
<defs>
<symbol id="icon-vk" viewBox="0 0 32 32">
<path fill="#4680c2" style="fill: var(--color1, #4680c2)" d="M20.912 0h-9.824c-8.965 0-11.088 2.123-11.088 11.088v9.824c0 8.965 2.123 11.088 11.088 11.088h9.824c8.965 0 11.088-2.123 11.088-11.088v-9.824c0-8.965-2.145-11.088-11.088-11.088zM25.835 22.831h-2.325c-0.88 0-1.152-0.7-2.733-2.303-1.377-1.333-1.987-1.513-2.325-1.513-0.475 0-0.611 0.136-0.611 0.791v2.1c0 0.565-0.18 0.904-1.671 0.904-2.461 0-5.195-1.491-7.113-4.269-2.891-4.064-3.683-7.113-3.683-7.745 0-0.339 0.136-0.655 0.791-0.655h2.325c0.587 0 0.813 0.271 1.040 0.903 1.151 3.32 3.071 6.233 3.861 6.233 0.293 0 0.429-0.136 0.429-0.88v-3.435c-0.091-1.581-0.927-1.716-0.927-2.28 0-0.272 0.227-0.543 0.587-0.543h3.659c0.497 0 0.677 0.271 0.677 0.857v4.631c0 0.496 0.227 0.677 0.361 0.677 0.293 0 0.543-0.181 1.084-0.723 1.672-1.875 2.868-4.765 2.868-4.765 0.159-0.339 0.429-0.655 1.017-0.655h2.325c0.7 0 0.859 0.36 0.7 0.857-0.293 1.356-3.139 5.375-3.139 5.375-0.248 0.407-0.339 0.587 0 1.040 0.248 0.339 1.061 1.039 1.604 1.671 0.993 1.129 1.76 2.077 1.964 2.733 0.227 0.653-0.113 0.992-0.767 0.993z"></path>
</symbol>
<symbol id="icon-instagram" viewBox="0 0 32 32">
<path d="M16 2.881c4.275 0 4.781 0.019 6.462 0.094 1.563 0.069 2.406 0.331 2.969 0.55 0.744 0.288 1.281 0.638 1.837 1.194 0.563 0.563 0.906 1.094 1.2 1.838 0.219 0.563 0.481 1.412 0.55 2.969 0.075 1.688 0.094 2.194 0.094 6.463s-0.019 4.781-0.094 6.463c-0.069 1.563-0.331 2.406-0.55 2.969-0.288 0.744-0.637 1.281-1.194 1.837-0.563 0.563-1.094 0.906-1.837 1.2-0.563 0.219-1.413 0.481-2.969 0.55-1.688 0.075-2.194 0.094-6.463 0.094s-4.781-0.019-6.463-0.094c-1.563-0.069-2.406-0.331-2.969-0.55-0.744-0.288-1.281-0.637-1.838-1.194-0.563-0.563-0.906-1.094-1.2-1.837-0.219-0.563-0.481-1.413-0.55-2.969-0.075-1.688-0.094-2.194-0.094-6.463s0.019-4.781 0.094-6.463c0.069-1.563 0.331-2.406 0.55-2.969 0.288-0.744 0.638-1.281 1.194-1.838 0.563-0.563 1.094-0.906 1.838-1.2 0.563-0.219 1.412-0.481 2.969-0.55 1.681-0.075 2.188-0.094 6.463-0.094zM16 0c-4.344 0-4.887 0.019-6.594 0.094-1.7 0.075-2.869 0.35-3.881 0.744-1.056 0.412-1.95 0.956-2.837 1.85-0.894 0.888-1.438 1.781-1.85 2.831-0.394 1.019-0.669 2.181-0.744 3.881-0.075 1.713-0.094 2.256-0.094 6.6s0.019 4.887 0.094 6.594c0.075 1.7 0.35 2.869 0.744 3.881 0.413 1.056 0.956 1.95 1.85 2.837 0.887 0.887 1.781 1.438 2.831 1.844 1.019 0.394 2.181 0.669 3.881 0.744 1.706 0.075 2.25 0.094 6.594 0.094s4.888-0.019 6.594-0.094c1.7-0.075 2.869-0.35 3.881-0.744 1.050-0.406 1.944-0.956 2.831-1.844s1.438-1.781 1.844-2.831c0.394-1.019 0.669-2.181 0.744-3.881 0.075-1.706 0.094-2.25 0.094-6.594s-0.019-4.887-0.094-6.594c-0.075-1.7-0.35-2.869-0.744-3.881-0.394-1.063-0.938-1.956-1.831-2.844-0.887-0.887-1.781-1.438-2.831-1.844-1.019-0.394-2.181-0.669-3.881-0.744-1.712-0.081-2.256-0.1-6.6-0.1v0z"></path>
<path d="M16 7.781c-4.537 0-8.219 3.681-8.219 8.219s3.681 8.219 8.219 8.219 8.219-3.681 8.219-8.219c0-4.537-3.681-8.219-8.219-8.219zM16 21.331c-2.944 0-5.331-2.387-5.331-5.331s2.387-5.331 5.331-5.331c2.944 0 5.331 2.387 5.331 5.331s-2.387 5.331-5.331 5.331z"></path>
<path d="M26.462 7.456c0 1.060-0.859 1.919-1.919 1.919s-1.919-0.859-1.919-1.919c0-1.060 0.859-1.919 1.919-1.919s1.919 0.859 1.919 1.919z"></path>
</symbol>
<symbol id="icon-vk1" viewBox="0 0 32 32">
<path d="M29 0h-26c-1.65 0-3 1.35-3 3v26c0 1.65 1.35 3 3 3h26c1.65 0 3-1.35 3-3v-26c0-1.65-1.35-3-3-3zM25.919 22.4l-2.925 0.044c0 0-0.631 0.125-1.456-0.444-1.094-0.75-2.125-2.706-2.931-2.45-0.813 0.256-0.788 2.012-0.788 2.012s0.006 0.375-0.181 0.575c-0.2 0.219-0.6 0.262-0.6 0.262h-1.306c0 0-2.888 0.175-5.431-2.475-2.775-2.887-5.225-8.619-5.225-8.619s-0.144-0.375 0.013-0.556c0.175-0.206 0.644-0.219 0.644-0.219l3.131-0.019c0 0 0.294 0.050 0.506 0.206 0.175 0.125 0.269 0.369 0.269 0.369s0.506 1.281 1.175 2.438c1.306 2.256 1.919 2.75 2.362 2.513 0.644-0.35 0.45-3.194 0.45-3.194s0.012-1.031-0.325-1.488c-0.262-0.356-0.756-0.463-0.969-0.488-0.175-0.025 0.113-0.431 0.488-0.619 0.563-0.275 1.556-0.294 2.731-0.281 0.913 0.006 1.181 0.069 1.538 0.15 1.081 0.262 0.712 1.269 0.712 3.681 0 0.775-0.137 1.863 0.419 2.219 0.238 0.156 0.825 0.025 2.294-2.469 0.694-1.181 1.219-2.569 1.219-2.569s0.113-0.25 0.288-0.356c0.181-0.106 0.425-0.075 0.425-0.075l3.294-0.019c0 0 0.988-0.119 1.15 0.331 0.169 0.469-0.369 1.563-1.712 3.356-2.206 2.944-2.456 2.669-0.619 4.369 1.75 1.625 2.113 2.419 2.175 2.519 0.712 1.2-0.813 1.294-0.813 1.294z"></path>
</symbol>
<symbol id="icon-youtube" viewBox="0 0 32 32">
<path d="M31.681 9.6c0 0-0.313-2.206-1.275-3.175-1.219-1.275-2.581-1.281-3.206-1.356-4.475-0.325-11.194-0.325-11.194-0.325h-0.012c0 0-6.719 0-11.194 0.325-0.625 0.075-1.987 0.081-3.206 1.356-0.963 0.969-1.269 3.175-1.269 3.175s-0.319 2.588-0.319 5.181v2.425c0 2.587 0.319 5.181 0.319 5.181s0.313 2.206 1.269 3.175c1.219 1.275 2.819 1.231 3.531 1.369 2.563 0.244 10.881 0.319 10.881 0.319s6.725-0.012 11.2-0.331c0.625-0.075 1.988-0.081 3.206-1.356 0.962-0.969 1.275-3.175 1.275-3.175s0.319-2.587 0.319-5.181v-2.425c-0.006-2.588-0.325-5.181-0.325-5.181zM12.694 20.15v-8.994l8.644 4.513-8.644 4.481z"></path>
</symbol>
</defs>
</svg>
